<svg width="288" height="604" viewBox="0 0 288 604" fill="none" xmlns="http://www.w3.org/2000/svg">
<g opacity="0.11">
<path d="M141.545 438.915C135.371 435.35 127.764 435.346 121.587 438.905L2.63943 507.422C0.766632 508.503 0.766632 511.205 2.63943 512.286L122.578 581.533C128.027 584.679 134.741 584.679 140.19 581.533L260.314 512.351C262.187 511.27 262.187 508.568 260.314 507.486L141.545 438.915Z" fill="url(#paint0_linear_1_55)"/>
</g>
<g opacity="0.11">
<path d="M141.545 418.876C135.371 415.312 127.765 415.307 121.587 418.867L2.6395 487.383C0.766693 488.464 0.766693 491.167 2.6395 492.248L122.578 561.494C128.027 564.64 134.741 564.64 140.19 561.494L260.314 492.312C262.187 491.231 262.187 488.529 260.314 487.448L141.545 418.876Z" fill="url(#paint1_linear_1_55)"/>
</g>
<g opacity="0.11">
<path d="M141.545 418.876C135.371 415.312 127.765 415.307 121.587 418.867L2.6395 487.383C0.766693 488.464 0.766693 491.167 2.6395 492.248L122.578 561.494C128.027 564.64 134.741 564.64 140.19 561.494L260.314 492.312C262.187 491.231 262.187 488.529 260.314 487.448L141.545 418.876Z" fill="url(#paint2_linear_1_55)"/>
</g>
<path d="M260.314 489.545L140.191 558.726C134.741 561.872 128.027 561.872 122.578 558.726L2.63962 489.48C2.17761 489.213 1.83194 488.847 1.59824 488.431C0.883148 489.7 1.22989 491.434 2.63962 492.248L122.578 561.494C128.027 564.64 134.741 564.64 140.191 561.494L260.314 492.312C261.725 491.498 262.071 489.764 261.356 488.496C261.122 488.911 260.776 489.279 260.314 489.545Z" fill="url(#paint3_linear_1_55)"/>
<path opacity="0.5" d="M260.314 487.448L141.545 418.876C135.371 415.312 127.765 415.307 121.587 418.867L2.63959 487.383C1.7037 487.924 1.23526 488.869 1.23526 489.816V529.961C1.23526 530.907 1.7037 531.853 2.63959 532.394L122.578 601.641C128.027 604.786 134.741 604.786 140.19 601.641L260.314 532.459C261.251 531.918 261.719 530.973 261.719 530.026V489.881C261.719 488.934 261.251 487.988 260.314 487.448Z" fill="url(#paint4_linear_1_55)"/>
<g opacity="0.5">
<path d="M9.25854 337.919C6.37233 338.665 3.53565 339.445 0.749587 340.258V360.826C3.53565 360.013 6.37233 359.233 9.25854 358.487V337.919Z" fill="#42E8E0"/>
<path opacity="0.5" d="M28.9733 338.781C25.8867 339.372 22.8433 340 19.844 340.662V355.951C22.8422 355.288 25.8867 354.66 28.9733 354.07V338.781Z" fill="#42E8E0"/>
<path d="M49.9296 322.033C46.6675 322.457 43.442 322.92 40.2564 323.422V352.103C43.442 351.602 46.6664 351.138 49.9285 350.714V322.033H49.9296Z" fill="#42E8E0"/>
<path opacity="0.5" d="M71.9649 303.956C68.551 304.202 65.1694 304.49 61.8211 304.818V349.361C65.1694 349.032 68.551 348.744 71.9649 348.499V303.956Z" fill="#42E8E0"/>
<path opacity="0.5" d="M94.9384 313.519C91.3909 313.573 87.8693 313.674 84.3757 313.817V347.8C87.8693 347.657 91.3909 347.557 94.9384 347.502V313.519Z" fill="#42E8E0"/>
<path d="M118.131 277.947C114.667 277.807 111.178 277.71 107.665 277.657V347.498C111.178 347.551 114.668 347.648 118.131 347.788V277.947Z" fill="#42E8E0"/>
<path d="M140.561 292.329C137.228 292.004 133.863 291.721 130.468 291.479V348.476C133.862 348.719 137.228 349.002 140.561 349.326V292.329Z" fill="#42E8E0"/>
<path d="M162.049 273.72C158.872 273.224 155.656 272.764 152.405 272.345V350.665C155.656 351.085 158.872 351.543 162.049 352.04V273.72Z" fill="#42E8E0"/>
</g>
<path opacity="0.2" d="M131.477 532.369C89.6672 532.369 55.7738 512.801 55.7738 488.662C55.7738 464.524 89.6672 444.956 131.477 444.956C173.286 444.956 207.18 464.524 207.18 488.662C207.18 512.801 173.286 532.369 131.477 532.369Z" fill="#42E8E0"/>
<path d="M131.477 513.458C107.758 513.458 88.5304 502.357 88.5304 488.662C88.5304 474.968 107.758 463.867 131.477 463.867C155.196 463.867 174.423 474.968 174.423 488.662C174.423 502.357 155.196 513.458 131.477 513.458Z" fill="#42E8E0"/>
<path d="M76.0082 420.273L81.3672 422.442L62.8523 468.187L57.4933 466.018L76.0082 420.273Z" fill="#42E8E0"/>
<path d="M177.852 416.924C167.932 416.924 159.891 408.882 159.891 398.962C159.891 389.043 167.932 381.001 177.852 381.001C187.772 381.001 195.813 389.043 195.813 398.962C195.813 408.882 187.772 416.924 177.852 416.924Z" fill="url(#paint5_radial_1_55)"/>
<path d="M85.1024 425.532C85.1024 460.398 105.865 488.662 131.477 488.662C157.089 488.662 177.851 460.398 177.851 425.532C177.851 390.666 157.089 380.218 131.477 380.218C105.865 380.217 85.1024 390.666 85.1024 425.532Z" fill="url(#paint6_radial_1_55)"/>
<path d="M85.1024 425.532C85.1024 460.398 105.865 488.662 131.477 488.662C157.089 488.662 177.851 460.398 177.851 425.532C177.851 390.666 157.089 380.218 131.477 380.218C105.865 380.217 85.1024 390.666 85.1024 425.532Z" fill="url(#paint7_linear_1_55)"/>
<path d="M131.477 417.236C113.997 417.236 99.8265 409.055 99.8265 398.963C99.8265 388.87 113.997 380.689 131.477 380.689C148.957 380.689 163.127 388.87 163.127 398.963C163.127 409.055 148.957 417.236 131.477 417.236Z" fill="#393091"/>
<path d="M153.858 390.909C141.498 383.773 121.458 383.773 109.098 390.909C103.992 393.857 101.001 397.561 100.114 401.396C98.8517 395.946 101.842 390.23 109.098 386.041C121.458 378.905 141.498 378.905 153.858 386.041C161.112 390.23 164.103 395.945 162.841 401.395C161.952 397.56 158.963 393.857 153.858 390.909Z" fill="#453C9E"/>
<path d="M168.01 355.54L162.285 345.675C158.917 342.18 156.225 337.542 154.858 332.879L149.06 322.888L157.399 318.1C157.666 317.919 157.945 317.757 158.236 317.62L158.24 317.617C160.611 316.495 163.762 316.796 167.222 318.792C174.594 323.048 180.571 333.4 180.571 341.913C180.571 346.167 179.079 349.157 176.665 350.553L176.662 350.555L168.01 355.54Z" fill="url(#paint8_radial_1_55)"/>
<path d="M145.284 331.448C145.284 339.961 151.261 350.312 158.634 354.569C166.007 358.825 171.983 355.375 171.983 346.862C171.983 338.349 166.006 327.997 158.634 323.741C151.261 319.485 145.284 322.935 145.284 331.448Z" fill="#BCBEFF"/>
<path d="M129.637 402.645C103.516 402.645 82.34 381.469 82.34 355.347C82.34 329.226 103.516 308.05 129.637 308.05C155.759 308.05 176.935 329.226 176.935 355.347C176.935 381.469 155.759 402.645 129.637 402.645Z" fill="url(#paint9_radial_1_55)"/>
<path d="M129.637 402.645C103.516 402.645 82.34 381.469 82.34 355.347C82.34 329.226 103.516 308.05 129.637 308.05C155.759 308.05 176.935 329.226 176.935 355.347C176.935 381.469 155.759 402.645 129.637 402.645Z" fill="url(#paint10_linear_1_55)"/>
<path d="M103.169 387.335L97.4441 377.469C94.0764 373.975 91.3841 369.336 90.0174 364.673L84.2191 354.682L92.558 349.894C92.825 349.713 93.104 349.551 93.3948 349.413L93.3991 349.41C95.7705 348.288 98.9216 348.588 102.381 350.585C109.754 354.841 115.731 365.193 115.731 373.706C115.731 377.96 114.238 380.949 111.825 382.345L111.821 382.347L103.169 387.335Z" fill="url(#paint11_radial_1_55)"/>
<path d="M103.169 387.335L97.4441 377.469C94.0764 373.975 91.3841 369.336 90.0174 364.673L84.2191 354.682L92.558 349.894C92.825 349.713 93.104 349.551 93.3948 349.413L93.3991 349.41C95.7705 348.288 98.9216 348.588 102.381 350.585C109.754 354.841 115.731 365.193 115.731 373.706C115.731 377.96 114.238 380.949 111.825 382.345L111.821 382.347L103.169 387.335Z" fill="url(#paint12_linear_1_55)"/>
<path opacity="0.5" d="M206.446 0V461.297C206.445 479.394 199.085 497.491 184.365 511.299C154.924 538.915 107.193 538.917 77.7531 511.301C63.1184 497.573 55.7657 479.605 55.6821 461.613H55.6735V0H206.446Z" fill="url(#paint13_linear_1_55)"/>
<path d="M80.4433 363.242C80.4433 371.756 86.4204 382.107 93.7931 386.363C101.166 390.619 107.142 387.17 107.142 378.657C107.142 370.143 101.165 359.792 93.7931 355.536C86.4193 351.28 80.4433 354.73 80.4433 363.242Z" fill="#BCBEFF"/>
<path d="M106.528 378.767C106.528 370.253 100.551 359.902 93.1792 355.646C90.6247 354.171 88.2382 353.623 86.2103 353.888C88.3642 353.412 90.9758 353.91 93.7931 355.536C101.166 359.792 107.143 370.145 107.143 378.657C107.143 384.22 104.589 387.62 100.763 388.121C104.245 387.351 106.528 384.026 106.528 378.767Z" fill="white"/>
<path d="M84.2507 365.44C84.2507 371.525 88.5229 378.925 93.7924 381.967C99.0619 385.01 103.334 382.543 103.334 376.459C103.334 370.374 99.0619 362.974 93.7924 359.932C88.5229 356.889 84.2507 359.356 84.2507 365.44Z" fill="#393091"/>
<path d="M88.3106 358.77C87.323 359.935 86.7469 361.678 86.7469 363.909C86.7469 369.994 91.0191 377.393 96.2886 380.436C98.3294 381.614 100.219 381.963 101.77 381.599C100.065 383.611 97.1297 383.896 93.7923 381.969C88.5228 378.927 84.2505 371.527 84.2505 365.443C84.2505 361.712 85.8562 359.346 88.3106 358.77Z" fill="#453C9E"/>
<path d="M149.894 386.635C143.771 384.086 142.386 373.423 146.801 362.818C151.216 352.212 159.758 345.681 165.881 348.23C172.004 350.779 173.389 361.442 168.975 372.048C164.56 382.653 156.017 389.184 149.894 386.635Z" fill="#393091"/>
<path d="M150.547 369.696C150.987 373.077 153.538 374.139 156.245 372.068C158.953 369.997 160.792 365.578 160.354 362.198C159.914 358.817 157.363 357.755 154.656 359.826C151.947 361.897 150.108 366.317 150.547 369.696Z" fill="#42E8E0"/>
<path d="M156.495 382.92C163.947 377.223 169.007 365.064 167.799 355.763C167.307 351.971 165.848 349.24 163.787 347.72C167.683 348.086 170.632 351.39 171.377 357.118C172.585 366.419 167.524 378.578 160.073 384.275C155.66 387.649 151.398 387.999 148.405 385.791C150.836 386.021 153.633 385.109 156.495 382.92Z" fill="#453C9E"/>
<path d="M159.432 383.972C166.884 378.275 171.944 366.117 170.736 356.815C170.177 352.509 168.371 349.574 165.853 348.226C168.703 349.399 170.77 352.455 171.377 357.119C172.585 366.42 167.524 378.579 160.073 384.276C156.072 387.335 152.201 387.901 149.281 386.337C152.114 387.503 155.718 386.812 159.432 383.972Z" fill="#42E8E0"/>
<path d="M61.0915 424.844C63.0182 434.575 72.4684 440.901 82.1997 438.974C91.931 437.048 98.257 427.597 96.3303 417.866C94.4037 408.135 84.9535 401.809 75.2222 403.735C65.4909 405.662 59.1649 415.112 61.0915 424.844Z" fill="url(#paint14_radial_1_55)"/>
<path d="M61.0915 424.844C63.0182 434.575 72.4684 440.901 82.1997 438.974C91.931 437.048 98.257 427.597 96.3303 417.866C94.4037 408.135 84.9535 401.809 75.2222 403.735C65.4909 405.662 59.1649 415.112 61.0915 424.844Z" fill="url(#paint15_linear_1_55)"/>
<path d="M50.0644 480.865C51.0832 489.4 58.6208 505.566 65.4432 504.752C72.2657 503.938 75.7884 486.453 74.7696 477.918C73.7508 469.383 67.3947 463.124 60.5733 463.938C53.7508 464.752 49.0467 472.331 50.0644 480.865Z" fill="url(#paint16_radial_1_55)"/>
<path d="M50.0644 480.865C51.0832 489.4 58.6208 505.566 65.4432 504.752C72.2657 503.938 75.7884 486.453 74.7696 477.918C73.7508 469.383 67.3947 463.124 60.5733 463.938C53.7508 464.752 49.0467 472.331 50.0644 480.865Z" fill="url(#paint17_linear_1_55)"/>
<path d="M225.38 425.954C226.421 425.954 227.427 425.39 227.943 424.403C228.684 422.989 228.137 421.242 226.723 420.503L189.637 401.095C188.221 400.354 186.475 400.902 185.736 402.316C184.995 403.73 185.542 405.477 186.956 406.217L224.041 425.624C224.47 425.848 224.929 425.954 225.38 425.954Z" fill="#42E8E0"/>
<path d="M224.728 436.727C232.265 440.859 249.801 444.12 253.103 438.094C256.406 432.07 244.224 419.041 236.687 414.909C229.149 410.777 220.363 412.312 217.06 418.337C213.757 424.361 217.19 432.594 224.728 436.727Z" fill="url(#paint18_radial_1_55)"/>
<path d="M224.728 436.727C232.265 440.859 249.801 444.12 253.103 438.094C256.406 432.07 244.224 419.041 236.687 414.909C229.149 410.777 220.363 412.312 217.06 418.337C213.757 424.361 217.19 432.594 224.728 436.727Z" fill="url(#paint19_linear_1_55)"/>
<g opacity="0.5">
<path opacity="0.502" d="M227.022 291.292C200.169 283.207 184.188 313.633 199.88 342.969C213.197 367.862 245.658 385.845 254.149 359.698C259.143 344.316 255.006 306.62 229.601 292.396C236.447 295.936 241.471 300.943 246.401 309.139C237.032 320.666 236.267 321.608 228.18 330.911C218.602 308.281 217.82 306.432 210.737 291.127C216.268 289.204 221.138 289.254 227.022 291.292ZM227.539 291.491C227.391 291.432 227.241 291.374 227.09 291.318C227.241 291.373 227.391 291.432 227.539 291.491ZM228.181 291.75C228.011 291.678 227.839 291.608 227.668 291.54C227.839 291.609 228.01 291.679 228.181 291.75Z" fill="#42E8E0"/>
<path d="M272.429 320.146C270.859 318.499 269.177 316.88 267.388 315.289V393.609C269.176 395.2 270.859 396.818 272.429 398.466V320.146Z" fill="#42E8E0"/>
<path d="M280.478 357.893C279.371 356.141 278.143 354.412 276.799 352.709V403.489C278.143 405.192 279.372 406.921 280.478 408.673V357.893Z" fill="#42E8E0"/>
<path opacity="0.502" d="M287.682 416.924L287.6 417.106L287.503 411.962L287.682 411.69V416.924ZM287.682 432.071V353.751C287.682 353.25 287.672 352.749 287.653 352.246C287.515 348.668 286.89 345.148 285.808 341.695V420.015C286.89 423.467 287.515 426.989 287.653 430.566C287.672 431.068 287.682 431.57 287.682 432.071Z" fill="#42E8E0"/>
<path d="M287.682 416.924L287.6 417.106L287.503 411.961L287.682 411.689V416.924Z" fill="#42E8E0"/>
<path d="M229.514 292.354C229.544 292.368 229.572 292.382 229.601 292.396C229.573 292.382 229.544 292.368 229.514 292.354ZM227.091 291.317C227.069 291.309 227.046 291.3 227.024 291.292C227.045 291.301 227.068 291.31 227.091 291.317ZM228.811 292.026C228.842 292.041 228.875 292.055 228.907 292.069C228.875 292.055 228.844 292.04 228.811 292.026ZM227.668 291.54C227.663 291.538 227.657 291.536 227.651 291.534C227.647 291.532 227.641 291.53 227.635 291.527C227.631 291.525 227.624 291.523 227.619 291.521C227.614 291.519 227.608 291.517 227.603 291.514C227.598 291.512 227.592 291.51 227.587 291.508C227.581 291.506 227.576 291.504 227.571 291.502C227.565 291.499 227.56 291.497 227.554 291.495C227.549 291.493 227.544 291.491 227.538 291.489C227.582 291.507 227.624 291.524 227.668 291.54Z" fill="#42E8E0"/>
<path d="M228.181 291.75C219.433 288.105 213.116 290.3 210.738 291.126C220.751 313.192 221.798 315.498 228.181 330.91C238.048 319.435 239.565 317.672 246.402 309.138C244.468 305.924 238.582 296.14 228.181 291.75Z" fill="#42E8E0"/>
<path opacity="0.502" d="M166.038 484.406C174.096 486.797 179.268 481.903 181.157 480.454C195.945 467.929 208.902 452.653 223.742 440.184C228.128 436.498 230.815 438.022 232.335 438.428C260.007 449.406 260.007 449.406 264.445 442.705C272.575 428.312 272.857 427.148 276.629 418.153C277.491 416.098 280.418 412.987 281.722 413.152C287.929 414.904 287.107 416.174 287.682 416.923V411.688C280.363 408.866 279.608 408.528 276.629 415.341C262.956 444.353 260.552 443.708 257.368 442.956C228.242 431.31 228.606 432.156 221.184 439.871C208.342 453.241 182.45 479.267 174.45 481.34C171.999 481.66 168.094 481.31 165.785 480.723C137.673 471.306 126.519 465.385 99.0049 453.534L96.5397 457.529C106.722 461.97 137.504 474.081 165.832 483.001L166.038 484.406ZM78.1627 515.987V437.667C86.8117 438.155 95.6405 438.372 104.606 438.301C206.389 437.495 287.683 399.783 287.683 353.752V432.072C287.683 478.103 206.388 515.815 104.606 516.621C95.6394 516.691 86.8106 516.474 78.1627 515.987Z" fill="#42E8E0"/>
<path d="M166.038 484.406C173.287 486.262 180.136 488.015 222.768 442.15C228.164 436.727 228.164 436.727 255.853 447.763C258.995 448.526 263.744 449.679 276.835 418.455C280.876 409.233 287.617 416.84 287.683 416.924V411.689C285.394 410.388 285.239 410.3 281.799 409.33C281.172 409.154 280.484 409.185 279.905 409.485C278.985 409.962 278.056 411.046 276.439 414.489C268.899 430.554 268.899 430.554 263.468 439.341C260.266 444.089 260.266 444.089 234.279 433.774C232.504 433.297 228.809 432.303 223.24 436.745C207.588 449.23 194.851 464.846 179.4 477.546C173.601 481.671 170.101 484.16 99.0071 453.535L96.542 457.53C106.723 461.97 137.709 475.487 166.038 484.406Z" fill="#42E8E0"/>
</g>
<defs>
<linearGradient id="paint0_linear_1_55" x1="1.2355" y1="510.065" x2="261.719" y2="510.065" gradientUnits="userSpaceOnUse">
<stop stop-color="#5761D7"/>
<stop offset="0.0726" stop-color="#5472D8"/>
<stop offset="0.2791" stop-color="#4E9CDB"/>
<stop offset="0.4801" stop-color="#49BDDD"/>
<stop offset="0.6715" stop-color="#45D5DF"/>
<stop offset="0.8493" stop-color="#43E3E0"/>
<stop offset="1" stop-color="#42E8E0"/>
</linearGradient>
<linearGradient id="paint1_linear_1_55" x1="1.23556" y1="490.027" x2="261.719" y2="490.027" gradientUnits="userSpaceOnUse">
<stop stop-color="#5761D7"/>
<stop offset="0.0726" stop-color="#5472D8"/>
<stop offset="0.2791" stop-color="#4E9CDB"/>
<stop offset="0.4801" stop-color="#49BDDD"/>
<stop offset="0.6715" stop-color="#45D5DF"/>
<stop offset="0.8493" stop-color="#43E3E0"/>
<stop offset="1" stop-color="#42E8E0"/>
</linearGradient>
<linearGradient id="paint2_linear_1_55" x1="1.23556" y1="490.027" x2="261.719" y2="490.027" gradientUnits="userSpaceOnUse">
<stop stop-color="#5761D7"/>
<stop offset="0.0726" stop-color="#5472D8"/>
<stop offset="0.2791" stop-color="#4E9CDB"/>
<stop offset="0.4801" stop-color="#49BDDD"/>
<stop offset="0.6715" stop-color="#45D5DF"/>
<stop offset="0.8493" stop-color="#43E3E0"/>
<stop offset="1" stop-color="#42E8E0"/>
</linearGradient>
<linearGradient id="paint3_linear_1_55" x1="1.23726" y1="526.143" x2="261.717" y2="526.143" gradientUnits="userSpaceOnUse">
<stop stop-color="#5761D7"/>
<stop offset="0.0726" stop-color="#5472D8"/>
<stop offset="0.2791" stop-color="#4E9CDB"/>
<stop offset="0.4801" stop-color="#49BDDD"/>
<stop offset="0.6715" stop-color="#45D5DF"/>
<stop offset="0.8493" stop-color="#43E3E0"/>
<stop offset="1" stop-color="#42E8E0"/>
</linearGradient>
<linearGradient id="paint4_linear_1_55" x1="1.23568" y1="510.1" x2="261.719" y2="510.1" gradientUnits="userSpaceOnUse">
<stop stop-color="#5761D7"/>
<stop offset="0.0726" stop-color="#5472D8"/>
<stop offset="0.2791" stop-color="#4E9CDB"/>
<stop offset="0.4801" stop-color="#49BDDD"/>
<stop offset="0.6715" stop-color="#45D5DF"/>
<stop offset="0.8493" stop-color="#43E3E0"/>
<stop offset="1" stop-color="#42E8E0"/>
</linearGradient>
<radialGradient id="paint5_radial_1_55" cx="0" cy="0" r="1" gradientUnits="userSpaceOnUse" gradientTransform="translate(91.9424 341.578) rotate(168.802) scale(103.682 103.682)">
<stop stop-color="#C0BFF6"/>
<stop offset="1" stop-color="#393091"/>
</radialGradient>
<radialGradient id="paint6_radial_1_55" cx="0" cy="0" r="1" gradientUnits="userSpaceOnUse" gradientTransform="translate(104.115 416.071) rotate(180) scale(79.6976 108.49)">
<stop stop-color="#C0BFF6"/>
<stop offset="1" stop-color="#393091"/>
</radialGradient>
<linearGradient id="paint7_linear_1_55" x1="131.477" y1="488.662" x2="131.477" y2="380.217" gradientUnits="userSpaceOnUse">
<stop stop-color="#42E8E0"/>
<stop offset="0.0047" stop-color="#42E6DF"/>
<stop offset="0.1358" stop-color="#40B6CB"/>
<stop offset="0.2707" stop-color="#3E8DB9"/>
<stop offset="0.4074" stop-color="#3C6BAA"/>
<stop offset="0.5467" stop-color="#3B519F"/>
<stop offset="0.6893" stop-color="#3A3F97"/>
<stop offset="0.8375" stop-color="#393493"/>
<stop offset="1" stop-color="#393091"/>
</linearGradient>
<radialGradient id="paint8_radial_1_55" cx="0" cy="0" r="1" gradientUnits="userSpaceOnUse" gradientTransform="translate(178.17 281.93) rotate(180) scale(56.1237 56.1237)">
<stop stop-color="#C0BFF6"/>
<stop offset="1" stop-color="#393091"/>
</radialGradient>
<radialGradient id="paint9_radial_1_55" cx="0" cy="0" r="1" gradientUnits="userSpaceOnUse" gradientTransform="translate(100.12 348.341) rotate(180) scale(79.942 79.942)">
<stop stop-color="#C0BFF6"/>
<stop offset="1" stop-color="#393091"/>
</radialGradient>
<linearGradient id="paint10_linear_1_55" x1="136.221" y1="402.191" x2="123.054" y2="308.505" gradientUnits="userSpaceOnUse">
<stop stop-color="#42E8E0"/>
<stop offset="0.0047" stop-color="#42E6DF"/>
<stop offset="0.1358" stop-color="#40B6CB"/>
<stop offset="0.2707" stop-color="#3E8DB9"/>
<stop offset="0.4074" stop-color="#3C6BAA"/>
<stop offset="0.5467" stop-color="#3B519F"/>
<stop offset="0.6893" stop-color="#3A3F97"/>
<stop offset="0.8375" stop-color="#393493"/>
<stop offset="1" stop-color="#393091"/>
</linearGradient>
<radialGradient id="paint11_radial_1_55" cx="0" cy="0" r="1" gradientUnits="userSpaceOnUse" gradientTransform="translate(100.76 347.49) rotate(180) scale(37.965 37.965)">
<stop stop-color="#C0BFF6"/>
<stop offset="1" stop-color="#393091"/>
</radialGradient>
<linearGradient id="paint12_linear_1_55" x1="108.404" y1="385.429" x2="95.0633" y2="348.776" gradientUnits="userSpaceOnUse">
<stop stop-color="#42E8E0"/>
<stop offset="0.0047" stop-color="#42E6DF"/>
<stop offset="0.1358" stop-color="#40B6CB"/>
<stop offset="0.2707" stop-color="#3E8DB9"/>
<stop offset="0.4074" stop-color="#3C6BAA"/>
<stop offset="0.5467" stop-color="#3B519F"/>
<stop offset="0.6893" stop-color="#3A3F97"/>
<stop offset="0.8375" stop-color="#393493"/>
<stop offset="1" stop-color="#393091"/>
</linearGradient>
<linearGradient id="paint13_linear_1_55" x1="131.06" y1="532.013" x2="131.06" y2="0.000697628" gradientUnits="userSpaceOnUse">
<stop stop-color="#42E8E0"/>
<stop offset="0.1205" stop-color="#39BDC0"/>
<stop offset="0.2841" stop-color="#2F899A"/>
<stop offset="0.4453" stop-color="#265F7B"/>
<stop offset="0.6004" stop-color="#1F3D62"/>
<stop offset="0.7478" stop-color="#1A2550"/>
<stop offset="0.8845" stop-color="#171746"/>
<stop offset="1" stop-color="#161242"/>
</linearGradient>
<radialGradient id="paint14_radial_1_55" cx="0" cy="0" r="1" gradientUnits="userSpaceOnUse" gradientTransform="translate(68.0681 409.633) rotate(168.802) scale(37.473)">
<stop stop-color="#C0BFF6"/>
<stop offset="1" stop-color="#393091"/>
</radialGradient>
<linearGradient id="paint15_linear_1_55" x1="93.2416" y1="431.913" x2="64.1799" y2="410.797" gradientUnits="userSpaceOnUse">
<stop stop-color="#42E8E0"/>
<stop offset="0.0047" stop-color="#42E6DF"/>
<stop offset="0.1358" stop-color="#40B6CB"/>
<stop offset="0.2707" stop-color="#3E8DB9"/>
<stop offset="0.4074" stop-color="#3C6BAA"/>
<stop offset="0.5467" stop-color="#3B519F"/>
<stop offset="0.6893" stop-color="#3A3F97"/>
<stop offset="0.8375" stop-color="#393493"/>
<stop offset="1" stop-color="#393091"/>
</linearGradient>
<radialGradient id="paint16_radial_1_55" cx="0" cy="0" r="1" gradientUnits="userSpaceOnUse" gradientTransform="translate(45.3944 466.67) rotate(173.197) scale(31.8565 52.4768)">
<stop stop-color="#C0BFF6"/>
<stop offset="1" stop-color="#393091"/>
</radialGradient>
<linearGradient id="paint17_linear_1_55" x1="75.3609" y1="482.871" x2="50.6559" y2="485.819" gradientUnits="userSpaceOnUse">
<stop stop-color="#42E8E0"/>
<stop offset="0.0047" stop-color="#42E6DF"/>
<stop offset="0.1358" stop-color="#40B6CB"/>
<stop offset="0.2707" stop-color="#3E8DB9"/>
<stop offset="0.4074" stop-color="#3C6BAA"/>
<stop offset="0.5467" stop-color="#3B519F"/>
<stop offset="0.6893" stop-color="#3A3F97"/>
<stop offset="0.8375" stop-color="#393493"/>
<stop offset="1" stop-color="#393091"/>
</linearGradient>
<radialGradient id="paint18_radial_1_55" cx="0" cy="0" r="1" gradientUnits="userSpaceOnUse" gradientTransform="translate(202.541 415.404) rotate(118.73) scale(31.8567 52.4777)">
<stop stop-color="#C0BFF6"/>
<stop offset="1" stop-color="#393091"/>
</radialGradient>
<linearGradient id="paint19_linear_1_55" x1="217.327" y1="427.709" x2="244.815" y2="420.652" gradientUnits="userSpaceOnUse">
<stop stop-color="#42E8E0"/>
<stop offset="0.0047" stop-color="#42E6DF"/>
<stop offset="0.1358" stop-color="#40B6CB"/>
<stop offset="0.2707" stop-color="#3E8DB9"/>
<stop offset="0.4074" stop-color="#3C6BAA"/>
<stop offset="0.5467" stop-color="#3B519F"/>
<stop offset="0.6893" stop-color="#3A3F97"/>
<stop offset="0.8375" stop-color="#393493"/>
<stop offset="1" stop-color="#393091"/>
</linearGradient>
</defs>
</svg>
